<svg width="188" height="39" viewBox="0 0 188 39" fill="none" xmlns="http://www.w3.org/2000/svg">
<rect x="0.75" y="0.75" width="37.5" height="37.5" rx="11.25" fill="white" stroke="#6366F1" stroke-width="0.5"/>
<path d="M25.5734 11.7413C25.5734 10.953 25.4181 10.1725 25.1164 9.44418C24.8148 8.71589 24.3726 8.05415 23.8152 7.49674C23.2578 6.93934 22.5961 6.49718 21.8678 6.19551C21.1395 5.89384 20.3589 5.73858 19.5706 5.73858C18.7823 5.73858 18.0018 5.89384 17.2735 6.19551C16.5452 6.49718 15.8834 6.93934 15.326 7.49674C14.7686 8.05415 14.3265 8.71589 14.0248 9.44418C13.7231 10.1725 13.5679 10.953 13.5679 11.7413L14.9545 11.7413C14.9545 11.1351 15.0739 10.5349 15.3059 9.97482C15.5379 9.41476 15.8779 8.90588 16.3065 8.47723C16.7352 8.04859 17.2441 7.70856 17.8041 7.47658C18.3642 7.2446 18.9644 7.1252 19.5706 7.1252C20.1768 7.1252 20.7771 7.2446 21.3371 7.47658C21.8972 7.70856 22.4061 8.04859 22.8347 8.47723C23.2634 8.90588 23.6034 9.41476 23.8354 9.97482C24.0674 10.5349 24.1868 11.1351 24.1868 11.7413L25.5734 11.7413Z" fill="#FEC803"/>
<path d="M31.3746 13.5771C31.3746 12.5633 30.5527 11.7413 29.5388 11.7413H9.60531C8.59142 11.7413 7.7695 12.5633 7.7695 13.5771V23.5112C7.7695 28.7936 12.0517 33.0759 17.3341 33.0759H21.8099C27.0923 33.0759 31.3746 28.7936 31.3746 23.5112V13.5771Z" fill="#6366F1"/>
<path d="M11.9005 22.5436C12.4068 24.1819 13.4243 25.6152 14.804 26.6334C16.1837 27.6517 17.8532 28.2015 19.568 28.2023C21.2828 28.2031 22.9528 27.6548 24.3335 26.6378C25.7142 25.6208 26.733 24.1885 27.2407 22.5506L24.1721 21.5993C23.8675 22.5819 23.2563 23.441 22.4281 24.0511C21.5999 24.6611 20.5981 24.99 19.5695 24.9895C18.5409 24.9891 17.5394 24.6593 16.7118 24.0485C15.8841 23.4376 15.2738 22.5779 14.9701 21.5951L11.9005 22.5436Z" fill="#F9C338"/>
<path fill-rule="evenodd" clip-rule="evenodd" d="M59.0051 9.14572C57.0814 8.02563 54.9751 7.46558 52.6863 7.46558H44.8699C44.2612 7.46558 43.7377 7.68473 43.2994 8.12302C42.8611 8.53697 42.6419 9.0605 42.6419 9.69359V30.0745C42.6419 30.6832 42.8611 31.2068 43.2994 31.6451C43.7377 32.0834 44.2612 32.3025 44.8699 32.3025H52.6863C54.9751 32.3025 57.0814 31.7546 59.0051 30.6589C60.9287 29.5388 62.4506 28.0291 63.5707 26.1298C64.7151 24.2062 65.2873 22.1242 65.2873 19.884C65.2873 17.6438 64.7151 15.5741 63.5707 13.6748C62.4506 11.7512 60.9287 10.2415 59.0051 9.14572ZM52.6863 28.0291C54.1473 28.0291 55.4987 27.6638 56.7405 26.9333C58.0067 26.2028 59.0051 25.2167 59.7356 23.9748C60.4661 22.7086 60.8313 21.345 60.8313 19.884C60.8313 18.423 60.4661 17.0716 59.7356 15.8298C59.0051 14.5636 58.0067 13.5652 56.7405 12.8347C55.4987 12.1042 54.1473 11.739 52.6863 11.739H47.0979V28.0291H52.6863Z" fill="#6366F1"/>
<path fill-rule="evenodd" clip-rule="evenodd" d="M154.693 13.8267C155.302 13.8267 155.813 14.0458 156.227 14.4841C156.665 14.8981 156.884 15.4094 156.884 16.0182V29.7515C156.884 30.3603 156.665 30.8838 156.227 31.3221C155.813 31.7361 155.302 31.943 154.693 31.943C154.084 31.943 153.561 31.7361 153.122 31.3221C152.806 30.9873 152.611 30.6027 152.536 30.1685C152.513 30.0342 152.501 29.8953 152.501 29.7515V29.715L152.467 29.7515C152.371 29.8518 152.274 29.9494 152.175 30.0442C151.474 30.7159 150.681 31.2514 149.798 31.6508C148.776 32.0891 147.704 32.3083 146.584 32.3083C145.026 32.3083 143.589 31.8943 142.274 31.0664C140.959 30.2142 139.912 29.0697 139.133 27.6331C138.378 26.1721 138.001 24.5893 138.001 22.8849C138.001 21.1804 138.378 19.6098 139.133 18.1731C139.912 16.7121 140.959 15.5677 142.274 14.7398C143.589 13.8875 145.026 13.4614 146.584 13.4614C147.704 13.4614 148.776 13.6928 149.798 14.1554C150.681 14.5338 151.474 15.0574 152.175 15.7262C152.274 15.8206 152.371 15.9179 152.467 16.0182L152.501 16.0547V16.0182C152.501 15.8739 152.513 15.7351 152.536 15.6018C152.611 15.1725 152.806 14.8 153.122 14.4841C153.561 14.0458 154.084 13.8267 154.693 13.8267ZM150.054 27.487C149.275 27.9496 148.423 28.181 147.497 28.181C146.572 28.181 145.708 27.9496 144.904 27.487C144.125 27 143.504 26.3547 143.041 25.5512C142.603 24.7233 142.384 23.8345 142.384 22.8849C142.384 21.9352 142.603 21.0586 143.041 20.2551C143.504 19.4272 144.125 18.7819 144.904 18.3192C145.708 17.8322 146.572 17.5887 147.497 17.5887C148.423 17.5887 149.275 17.8322 150.054 18.3192C150.858 18.7819 151.479 19.4272 151.917 20.2551C152.38 21.0586 152.611 21.9352 152.611 22.8849C152.611 23.8345 152.38 24.7233 151.917 25.5512C151.479 26.3547 150.858 27 150.054 27.487Z" fill="#6366F1"/>
<path d="M184.934 27.7543C184.813 27.7543 184.654 27.7786 184.46 27.8273C183.851 27.9734 183.266 28.0465 182.706 28.0465C182.049 28.0465 181.489 27.9247 181.026 27.6812C180.71 27.4864 180.478 27.2186 180.332 26.8777C180.211 26.5124 180.15 26.0498 180.15 25.4897V18.0752H183.802C184.362 18.0752 184.849 17.8804 185.263 17.4908C185.677 17.0768 185.884 16.5777 185.884 15.9933C185.884 15.4332 185.677 14.9584 185.263 14.5688C184.849 14.1549 184.362 13.9479 183.802 13.9479H180.15V10.6241C180.15 10.0154 179.931 9.50401 179.492 9.09006C179.078 8.65177 178.567 8.43262 177.958 8.43262C177.349 8.43262 176.826 8.65177 176.388 9.09006C175.974 9.50401 175.767 10.0154 175.767 10.6241V13.9479H173.685C173.1 13.9479 172.601 14.1549 172.187 14.5688C171.798 14.9584 171.603 15.4332 171.603 15.9933C171.603 16.5777 171.798 17.0768 172.187 17.4908C172.601 17.8804 173.1 18.0752 173.685 18.0752H175.767V26.0011C175.767 27.1942 175.998 28.2291 176.461 29.1057C176.948 29.9823 177.617 30.6885 178.47 31.2242C179.565 31.9303 180.892 32.2834 182.451 32.2834C183.522 32.2834 184.545 32.1251 185.519 31.8086C185.957 31.6868 186.31 31.4433 186.578 31.0781C186.87 30.7128 187.016 30.2988 187.016 29.8362C187.016 29.2518 186.809 28.7648 186.395 28.3752C185.981 27.9613 185.494 27.7543 184.934 27.7543Z" fill="#6366F1"/>
<path d="M169.301 14.3122C168.863 13.8739 168.327 13.6548 167.694 13.6548C166.964 13.6548 166.209 13.8496 165.43 14.2392C164.761 14.5525 164.138 14.9732 163.559 15.5015C163.463 15.5891 163.368 15.6797 163.275 15.7732C163.249 15.6449 163.212 15.5217 163.165 15.4035C163.032 15.0732 162.812 14.7825 162.508 14.5314C162.118 14.1905 161.655 14.02 161.12 14.02C160.511 14.02 159.987 14.2392 159.549 14.6775C159.135 15.0914 158.928 15.6028 158.928 16.2115V29.9449C158.928 30.5536 159.135 31.0772 159.549 31.5155C159.987 31.9294 160.511 32.1364 161.12 32.1364C161.728 32.1364 162.24 31.9294 162.654 31.5155C163.092 31.0772 163.311 30.5536 163.311 29.9449V23.9913C163.311 22.2625 163.762 20.8989 164.663 19.9005C165.564 18.9022 166.684 18.3056 168.023 18.1108C168.583 18.0378 169.046 17.7943 169.411 17.3803C169.776 16.942 169.959 16.4428 169.959 15.8828C169.959 15.274 169.74 14.7505 169.301 14.3122Z" fill="#6366F1"/>
<path d="M120.505 30.5427C122.478 31.6871 124.62 32.2593 126.934 32.2593C128.662 32.2593 130.318 31.9306 131.901 31.2732C133.484 30.5914 134.859 29.6417 136.028 28.4242C136.467 27.9859 136.686 27.4746 136.686 26.8902C136.686 26.2814 136.467 25.7701 136.028 25.3561C135.614 24.9178 135.103 24.6987 134.494 24.6987C133.837 24.6987 133.301 24.93 132.887 25.3926C132.084 26.2205 131.17 26.8658 130.148 27.3285C129.149 27.7668 128.078 27.9859 126.934 27.9859C125.424 27.9859 124.024 27.6085 122.733 26.8536C121.467 26.0744 120.456 25.0396 119.702 23.749C118.971 22.4341 118.606 21.0097 118.606 19.4756C118.606 17.9416 118.971 16.5293 119.702 15.2387C120.456 13.9238 121.467 12.889 122.733 12.1341C124.024 11.3549 125.424 10.9653 126.934 10.9653C128.078 10.9653 129.149 11.1966 130.148 11.6593C131.17 12.0976 132.084 12.7307 132.887 13.5586C133.301 14.0212 133.837 14.2525 134.494 14.2525C135.103 14.2525 135.614 14.0456 136.028 13.6316C136.467 13.1933 136.686 12.6698 136.686 12.0611C136.686 11.4767 136.467 10.9653 136.028 10.527C134.859 9.30951 133.484 8.37204 131.901 7.71459C130.318 7.03279 128.662 6.69189 126.934 6.69189C124.62 6.69189 122.478 7.26412 120.505 8.40857C118.557 9.55301 117.011 11.1114 115.867 13.0838C114.722 15.0317 114.15 17.1624 114.15 19.4756C114.15 21.7889 114.722 23.9316 115.867 25.904C117.011 27.852 118.557 29.3982 120.505 30.5427Z" fill="#6366F1"/>
<path fill-rule="evenodd" clip-rule="evenodd" d="M105.241 14.4841C104.827 14.0458 104.316 13.8267 103.707 13.8267C103.098 13.8267 102.575 14.0458 102.137 14.4841C101.821 14.8 101.625 15.1725 101.551 15.6018C101.527 15.7351 101.516 15.8739 101.516 16.0182V16.0547L101.481 16.0182C101.386 15.9179 101.288 15.8206 101.189 15.7262C100.488 15.0574 99.6957 14.5338 98.8128 14.1554C97.7901 13.6928 96.7187 13.4614 95.5986 13.4614C94.0402 13.4614 92.6036 13.8875 91.2887 14.7398C89.9738 15.5677 88.9267 16.7121 88.1475 18.1731C87.3927 19.6098 87.0153 21.1804 87.0153 22.8849C87.0153 24.5893 87.3927 26.1721 88.1475 27.6331C88.9267 29.0697 89.9738 30.2142 91.2887 31.0664C92.6036 31.8943 94.0402 32.3083 95.5986 32.3083C96.7187 32.3083 97.7901 32.0891 98.8128 31.6508C99.6957 31.2514 100.488 30.7159 101.189 30.0442C101.288 29.9494 101.386 29.8518 101.481 29.7515L101.516 29.715V29.7515C101.516 29.8953 101.527 30.0342 101.55 30.1685C101.625 30.6027 101.82 30.9873 102.137 31.3221C102.575 31.7361 103.098 31.943 103.707 31.943C104.316 31.943 104.827 31.7361 105.241 31.3221C105.679 30.8838 105.899 30.3603 105.899 29.7515V16.0182C105.899 15.4094 105.679 14.8981 105.241 14.4841ZM96.5117 28.181C97.437 28.181 98.2893 27.9496 99.0685 27.487C99.872 27 100.493 26.3547 100.931 25.5512C101.394 24.7233 101.625 23.8345 101.625 22.8849C101.625 21.9352 101.394 21.0586 100.931 20.2551C100.493 19.4272 99.872 18.7819 99.0685 18.3192C98.2893 17.8322 97.437 17.5887 96.5117 17.5887C95.5864 17.5887 94.722 17.8322 93.9185 18.3192C93.1393 18.7819 92.5183 19.4272 92.0557 20.2551C91.6174 21.0586 91.3982 21.9352 91.3982 22.8849C91.3982 23.8345 91.6174 24.7233 92.0557 25.5512C92.5183 26.3547 93.1393 27 93.9185 27.487C94.722 27.9496 95.5864 28.181 96.5117 28.181Z" fill="#6366F1"/>
<path fill-rule="evenodd" clip-rule="evenodd" d="M76.1432 13.4614C77.799 13.4614 79.3209 13.8875 80.7089 14.7398C82.1212 15.5677 83.2291 16.7 84.0326 18.1366C84.8605 19.5733 85.2745 21.1438 85.2745 22.8483V23.2136C85.2501 23.798 85.031 24.2971 84.617 24.7111C84.2031 25.125 83.6917 25.332 83.083 25.332H71.7968C71.8404 25.4493 71.8877 25.563 71.9388 25.673C72.7142 27.345 74.347 28.181 76.8372 28.181C78.1765 28.181 79.6253 27.9131 81.1837 27.3774C81.5489 27.3044 81.7681 27.2678 81.8411 27.2678C82.4012 27.2678 82.876 27.4748 83.2656 27.8888C83.6796 28.3027 83.8865 28.7897 83.8865 29.3498C83.8865 29.7881 83.7526 30.1898 83.4848 30.5551C83.2413 30.896 82.9125 31.1395 82.4986 31.2856C80.5019 31.9674 78.6148 32.3083 76.8372 32.3083C73.8178 32.3083 71.4194 31.4804 69.6418 29.8246C67.8886 28.1688 67.012 25.8555 67.012 22.8849C67.012 21.1804 67.4138 19.6098 68.2173 18.1731C69.0452 16.7121 70.1532 15.5677 71.5411 14.7398C72.9534 13.8875 74.4875 13.4614 76.1432 13.4614ZM73.2943 18.648C74.1222 17.9418 75.0719 17.5887 76.1432 17.5887C77.2146 17.5887 78.1643 17.9418 78.9922 18.648C79.7325 19.2576 80.2586 20.0327 80.5705 20.9733C80.6075 21.0846 80.6414 21.1983 80.6723 21.3143H71.6142C71.6451 21.1983 71.679 21.0846 71.716 20.9733C72.0279 20.0327 72.554 19.2576 73.2943 18.648Z" fill="#6366F1"/>
<path d="M110.024 6.69189C110.633 6.69189 111.145 6.91104 111.558 7.34934C111.997 7.76329 112.216 8.27464 112.216 8.88339V30.0678C112.216 30.6766 111.997 31.2001 111.558 31.6384C111.145 32.0524 110.633 32.2593 110.024 32.2593C109.416 32.2593 108.892 32.0524 108.454 31.6384C108.04 31.2001 107.833 30.6766 107.833 30.0678V8.88339C107.833 8.27464 108.04 7.76329 108.454 7.34934C108.892 6.91104 109.416 6.69189 110.024 6.69189Z" fill="#6366F1"/>
</svg>
